# xmcd
#
# Track frame offsets: 
#        150
#        26295
#        48827
#        78685
#        97947
#        116012
#        139872
#        161667
#        182137
#        198297
#        220470
#        238250
#        257150
#
# Disc length: 3699 seconds
#
# Revision: 26
# Processed by: cddbd v1.5.2PL0 Copyright (c) Steve Scherf et al.
# Submitted via: ExactAudioCopy v0.99pb5
#
DISCID=b50e710d
DTITLE=B.B. King - Deuces Wild
DYEAR=1997
DGENRE=Blues
TTITLE0=If You Love Me (With Van Morrison)
TTITLE1=The Thrill Is Gone (With Tracy Chapman)
TTITLE2=Rock Me Baby (With Eric Clapton)
TTITLE3=Please Send Me Someone To Love (With Mick Hucknall)
TTITLE4=Baby I Love You (With Bonnie Raitt)
TTITLE5=Ain't Nobody Home (With D'Angelo)
TTITLE6=There Must Be A Better World Somewhere (With Dr. John)
TTITLE7=Confessin' The Blues (With Marty Stuart)
TTITLE8=Paying The Cost To Be The Boss (With The Rolling Stones)
TTITLE9=Dangerous Mood (With Joe Cocker)
TTITLE10=Keep It Coming (With Heavy D)
TTITLE11=Cryin' Won't Help You Babe (With  David Gilmour and Paul Carrac
TTITLE11=k)
TTITLE12=Night Life (With Willie Nelson)
EXTD=YEAR: 1997
EXTT0=
EXTT1=
EXTT2=
EXTT3=
EXTT4=
EXTT5=
EXTT6=
EXTT7=
EXTT8=
EXTT9=
EXTT10=
EXTT11=
EXTT12=
PLAYORDER=
